<mxfile host="app.diagrams.net" modified="2022-11-21T06:11:32.635Z" agent="5.0 (Windows NT 10.0; Win64; x64) AppleWebKit/537.36 (KHTML, like Gecko) Chrome/107.0.0.0 Safari/537.36" etag="AgOGZQFAB6bDMgREtGfx" version="20.5.1" type="github">
  <diagram id="C5RBs43oDa-KdzZeNtuy" name="Page-1">
    <mxGraphModel dx="1038" dy="539" grid="1" gridSize="10" guides="1" tooltips="1" connect="1" arrows="1" fold="1" page="1" pageScale="1" pageWidth="827" pageHeight="1169" math="0" shadow="0">
      <root>
        <mxCell id="WIyWlLk6GJQsqaUBKTNV-0" />
        <mxCell id="WIyWlLk6GJQsqaUBKTNV-1" parent="WIyWlLk6GJQsqaUBKTNV-0" />
        <mxCell id="DbBoDW573hkNjqEBMI5i-8" value="" style="edgeStyle=orthogonalEdgeStyle;rounded=0;orthogonalLoop=1;jettySize=auto;html=1;entryX=0;entryY=0.5;entryDx=0;entryDy=0;" edge="1" parent="WIyWlLk6GJQsqaUBKTNV-1" source="DbBoDW573hkNjqEBMI5i-0" target="DbBoDW573hkNjqEBMI5i-2">
          <mxGeometry relative="1" as="geometry" />
        </mxCell>
        <mxCell id="DbBoDW573hkNjqEBMI5i-0" value="慧盈-portal" style="rounded=1;whiteSpace=wrap;html=1;" vertex="1" parent="WIyWlLk6GJQsqaUBKTNV-1">
          <mxGeometry x="50" y="175" width="100" height="50" as="geometry" />
        </mxCell>
        <mxCell id="DbBoDW573hkNjqEBMI5i-10" value="" style="edgeStyle=orthogonalEdgeStyle;rounded=0;orthogonalLoop=1;jettySize=auto;html=1;entryX=0;entryY=0.5;entryDx=0;entryDy=0;" edge="1" parent="WIyWlLk6GJQsqaUBKTNV-1" source="DbBoDW573hkNjqEBMI5i-2" target="DbBoDW573hkNjqEBMI5i-6">
          <mxGeometry relative="1" as="geometry" />
        </mxCell>
        <mxCell id="DbBoDW573hkNjqEBMI5i-2" value="" style="rounded=1;whiteSpace=wrap;html=1;fillColor=none;dashed=1;" vertex="1" parent="WIyWlLk6GJQsqaUBKTNV-1">
          <mxGeometry x="210" y="110" width="200" height="180" as="geometry" />
        </mxCell>
        <mxCell id="DbBoDW573hkNjqEBMI5i-1" value="bfip-invoice" style="rounded=1;whiteSpace=wrap;html=1;" vertex="1" parent="WIyWlLk6GJQsqaUBKTNV-1">
          <mxGeometry x="240" y="175" width="100" height="50" as="geometry" />
        </mxCell>
        <mxCell id="DbBoDW573hkNjqEBMI5i-4" value="大客户平台" style="text;html=1;strokeColor=none;fillColor=none;align=center;verticalAlign=middle;whiteSpace=wrap;rounded=0;" vertex="1" parent="WIyWlLk6GJQsqaUBKTNV-1">
          <mxGeometry x="240" y="80" width="140" height="30" as="geometry" />
        </mxCell>
        <mxCell id="DbBoDW573hkNjqEBMI5i-13" value="" style="edgeStyle=orthogonalEdgeStyle;rounded=0;orthogonalLoop=1;jettySize=auto;html=1;" edge="1" parent="WIyWlLk6GJQsqaUBKTNV-1" source="DbBoDW573hkNjqEBMI5i-6" target="DbBoDW573hkNjqEBMI5i-12">
          <mxGeometry relative="1" as="geometry" />
        </mxCell>
        <mxCell id="DbBoDW573hkNjqEBMI5i-6" value="" style="rounded=1;whiteSpace=wrap;html=1;fillColor=none;dashed=1;" vertex="1" parent="WIyWlLk6GJQsqaUBKTNV-1">
          <mxGeometry x="460" y="110" width="200" height="180" as="geometry" />
        </mxCell>
        <mxCell id="DbBoDW573hkNjqEBMI5i-7" value="开放平台" style="text;html=1;strokeColor=none;fillColor=none;align=center;verticalAlign=middle;whiteSpace=wrap;rounded=0;" vertex="1" parent="WIyWlLk6GJQsqaUBKTNV-1">
          <mxGeometry x="490" y="80" width="140" height="30" as="geometry" />
        </mxCell>
        <mxCell id="DbBoDW573hkNjqEBMI5i-5" value="open-invoice" style="rounded=1;whiteSpace=wrap;html=1;" vertex="1" parent="WIyWlLk6GJQsqaUBKTNV-1">
          <mxGeometry x="480" y="175" width="100" height="50" as="geometry" />
        </mxCell>
        <mxCell id="DbBoDW573hkNjqEBMI5i-11" value="&lt;span style=&quot;font-weight: normal;&quot;&gt;ftsp-restclient&lt;/span&gt;" style="shape=folder;fontStyle=1;spacingTop=10;tabWidth=40;tabHeight=14;tabPosition=left;html=1;dashed=1;fillColor=none;" vertex="1" parent="WIyWlLk6GJQsqaUBKTNV-1">
          <mxGeometry x="560" y="225" width="70" height="50" as="geometry" />
        </mxCell>
        <mxCell id="DbBoDW573hkNjqEBMI5i-12" value="蒙柏" style="rounded=1;whiteSpace=wrap;html=1;" vertex="1" parent="WIyWlLk6GJQsqaUBKTNV-1">
          <mxGeometry x="720" y="175" width="100" height="50" as="geometry" />
        </mxCell>
      </root>
    </mxGraphModel>
  </diagram>
</mxfile>
